<svg width="565" height="564" viewBox="0 0 565 564" fill="none" xmlns="http://www.w3.org/2000/svg">
<path d="M456 264.5C456 409.13 361.121 526 244.5 526C127.879 526 33 409.13 33 264.5C33 119.87 127.879 3 244.5 3C361.121 3 456 119.87 456 264.5Z" fill="url(#paint0_linear)" stroke="black" stroke-width="2"/>
<path d="M293 10C357.296 54.7587 437.78 226.745 456 287M293 10L323 23C387.296 67.7587 437.78 184.745 456 245V287M293 10L257 2M456 287L452.5 315.5M161 23C225.296 67.7587 391.78 366.745 410 427M161 23L147.5 31.5M161 23L177 15M410 427L429 393M410 427L399 443M257 2C321.296 46.7587 434.28 255.245 452.5 315.5M257 2H232M452.5 315.5L449 337M232 2C296.296 46.7587 430.78 276.745 449 337M232 2L207.5 5.5M449 337L440 366M133 43C156.561 99.2482 308.914 427.989 367 477M133 43L109 61M133 43L147.5 31.5M367 477C379.882 466.001 386.906 458.667 399 443M367 477C352.683 492.344 345.181 496.744 332 503M207.5 5.5C271.796 50.2587 421.78 305.745 440 366M207.5 5.5L177 15M440 366L429 393M177 15C241.296 59.7587 410.78 332.745 429 393M147.5 31.5C188.118 92.5849 382 450 399 443M73 110C96.5608 166.248 173.914 478.989 232 528M73 110L57 143M73 110L93 80M232 528C258.86 526.985 269.97 525.839 281 522.5M232 528L195 519M109 61C132.561 117.248 273.914 453.989 332 503M109 61L93 80M332 503C314.864 512.254 304.188 516.812 281 522.5M93 80C116.561 136.248 222.914 473.489 281 522.5M57 143C60.9549 202.741 116.967 473.534 195 519M57 143L43 177M195 519L157 503M43 177C46.9549 236.741 78.9673 457.534 157 503M43 177L38 213C49.0313 251.919 38.3118 397.923 109 465C129.024 487.904 139.251 494.44 157 503" stroke="url(#paint1_linear)" stroke-width="2"/>
<path d="M293 520C357.296 475.241 437.78 303.255 456 243M293 520L323 507C387.296 462.241 437.78 345.255 456 285V243M293 520L257 528M456 243L452.5 214.5M161 507C225.296 462.241 391.78 163.255 410 103M161 507L147.5 498.5M161 507L177 515M410 103L429 137M410 103L399 87M257 528C321.296 483.241 434.28 274.755 452.5 214.5M257 528H232M452.5 214.5L449 193M232 528C296.296 483.241 430.78 253.255 449 193M232 528L207.5 524.5M449 193L440 164M133 487C156.561 430.752 308.914 102.011 367 53M133 487L109 469M133 487L147.5 498.5M367 53C379.882 63.9989 386.906 71.3328 399 87M367 53C352.683 37.6556 345.181 33.2557 332 27M207.5 524.5C271.796 479.741 421.78 224.255 440 164M207.5 524.5L177 515M440 164L429 137M177 515C241.296 470.241 410.78 197.255 429 137M147.5 498.5C188.118 437.415 382 80 399 87M73 420C96.5608 363.752 173.914 51.011 232 2M73 420L57 387M73 420L93 450M232 2C258.86 3.01532 269.97 4.16087 281 7.5M232 2L195 11M109 469C132.561 412.752 273.914 76.011 332 27M109 469L93 450M332 27C314.864 17.7463 304.188 13.1876 281 7.5M93 450C116.561 393.752 222.914 56.511 281 7.5M57 387C60.9549 327.259 116.967 56.4665 195 11M57 387L43 353M195 11L157 27M43 353C46.9549 293.259 78.9673 72.4665 157 27M43 353L38 317C49.0313 278.081 38.3118 132.077 109 65C129.024 42.0956 139.251 35.5595 157 27" stroke="url(#paint2_linear)" stroke-width="2"/>
<g filter="url(#filter0_i)">
<path d="M112.088 437C112.609 443.979 123.731 475.594 127.14 476.5C261.721 567.629 344.731 509.387 408.14 439C418.352 426.28 424.158 419.636 432.587 396C430.36 370.392 425.856 366.016 416.587 362C416.587 362 382.973 362.129 397.587 334C412.202 305.871 415.789 289.056 386.587 251L356.588 217C345.894 198.674 343.63 187.103 349.588 163C338.918 174.481 333.097 181.968 323.588 201C323.558 223.543 325.326 235.453 332.588 255C348.914 291.009 319.088 313.5 319.088 313.5C319.088 313.5 295.393 332.852 295.088 355C295.108 370.39 310.088 392 310.088 392C310.088 392 326.588 422.5 326.088 428.5C325.588 434.5 311.754 443.992 300.088 447.534C289.005 442.257 260.087 410.933 258.5 380C256.766 346.212 285.829 336.263 300.088 304C319.088 254 297.529 172.334 274 166.5C250.471 160.666 244.092 150.604 244.588 144.5C245.084 138.396 275.668 45.0288 244.588 29C244.588 29 244.942 40.5885 244.588 48C242.014 101.832 198.006 125.802 190.587 175C188.288 205.117 202.238 233.025 210.5 246.5C218.762 259.975 256.071 267.5 258.5 280.5C262.073 299.628 255.149 306.224 250.23 322C243.873 342.386 227 371.5 227 371.5C227 371.5 199.678 446.959 180 435C180 435 174.68 427.867 181.5 411.534C192.017 388.845 198.651 380.422 210.5 365.5C222.127 344.351 209.464 329.176 187.588 304C177.24 295.316 164.64 267 183.64 249.5C195.64 236.5 185.782 161.005 154.588 163C164.382 183.11 166.904 194.604 157.087 216C148.64 232 105.14 241.5 100.64 267C94.8752 281.5 104.14 330.5 131.088 350.5C148.306 362.338 141.379 384.304 131.088 394.5C120.796 404.696 111.566 430.021 112.088 437Z" fill="url(#paint3_linear)"/>
</g>
<path d="M416.587 362C416.587 362 382.973 362.129 397.587 334C412.202 305.871 415.789 289.056 386.587 251L356.588 217C345.894 198.674 343.63 187.103 349.588 163C338.918 174.481 333.097 181.968 323.588 201C323.558 223.543 325.326 235.453 332.588 255C348.914 291.009 319.088 313.5 319.088 313.5C319.088 313.5 295.393 332.852 295.088 355C295.108 370.39 310.088 392 310.088 392C310.088 392 326.588 422.5 326.088 428.5C325.588 434.5 311.754 443.992 300.088 447.534C289.005 442.257 260.087 410.933 258.5 380C256.766 346.212 285.829 336.263 300.088 304C319.088 254 297.529 172.334 274 166.5C250.471 160.666 244.092 150.604 244.588 144.5C245.084 138.396 275.668 45.0288 244.588 29C244.588 29 244.942 40.5885 244.588 48C242.014 101.832 198.006 125.802 190.587 175C188.288 205.117 202.238 233.025 210.5 246.5C218.762 259.975 256.071 267.5 258.5 280.5C262.073 299.628 255.149 306.224 250.23 322C243.873 342.386 227 371.5 227 371.5C227 371.5 199.678 446.959 180 435C180 435 174.68 427.867 181.5 411.534C192.017 388.845 198.651 380.422 210.5 365.5C222.127 344.351 209.464 329.176 187.588 304C177.24 295.316 164.64 267 183.64 249.5C195.64 236.5 185.782 161.005 154.588 163C164.382 183.11 166.904 194.604 157.087 216C148.64 232 105.14 241.5 100.64 267C94.8752 281.5 104.14 330.5 131.088 350.5C148.306 362.338 141.379 384.304 131.088 394.5C120.796 404.696 111.566 430.021 112.088 437C112.609 443.979 123.731 475.594 127.14 476.5C261.721 567.629 344.731 509.387 408.14 439C418.352 426.28 424.158 419.636 432.587 396C430.36 370.392 425.856 366.016 416.587 362ZM416.587 362C426.72 364.861 414 358.187 416.587 362Z" stroke="black" stroke-width="2" stroke-linecap="round" stroke-linejoin="round"/>
<g filter="url(#filter1_d)">
<path d="M387.5 518C402.715 523.914 404.581 533.861 413.5 547C430.829 551.787 434 489.5 434.5 481.5C435 473.5 506.179 424.781 502 512C559.559 453.427 568.651 418.398 527.5 350.5C515.114 339.61 512.239 331.754 510 316.5C509.345 302.864 509.972 296.031 512.5 285C518.308 279.207 520.181 276.065 523 270.5C514.91 271.369 510.311 270.186 502 265L492.5 255C483.482 246.716 478.454 251.572 469.5 265L452.5 298C441.156 312.72 431.99 318.403 408.5 322L378.5 324.5C346.985 331.785 337.125 341.289 330 365.5C326.708 408.321 331.387 430.009 344.5 467C353.846 437.168 390.5 422.5 396 425.5C401.5 428.5 401.5 436 401.5 436C402.677 452.04 400.735 459.818 392.5 471.5C360.969 482.408 348.203 515.375 344.5 532.5C340.797 549.625 368.236 514.723 387.5 518Z" fill="white"/>
<path d="M387.5 518C402.715 523.914 404.581 533.861 413.5 547C430.829 551.787 434 489.5 434.5 481.5C435 473.5 506.179 424.781 502 512C559.559 453.427 568.651 418.398 527.5 350.5C515.114 339.61 512.239 331.754 510 316.5C509.345 302.864 509.972 296.031 512.5 285C518.308 279.207 520.181 276.065 523 270.5C514.91 271.369 510.311 270.186 502 265L492.5 255C483.482 246.716 478.454 251.572 469.5 265L452.5 298C441.156 312.72 431.99 318.403 408.5 322L378.5 324.5C346.985 331.785 337.125 341.289 330 365.5C326.708 408.321 331.387 430.009 344.5 467C353.846 437.168 390.5 422.5 396 425.5C401.5 428.5 401.5 436 401.5 436C402.677 452.04 400.735 459.818 392.5 471.5C360.969 482.408 348.203 515.375 344.5 532.5C340.797 549.625 368.236 514.723 387.5 518Z" stroke="black" stroke-width="4" stroke-linecap="round" stroke-linejoin="round"/>
</g>
<path d="M37 506V441V414H51C51.5397 426.105 52.387 429.167 54.5 430.5H79V384H17C5.70966 389.245 2.15885 394.198 2 407.5V517.5C3.63669 531.4 7.83421 537.025 23 542H82.5V487C81.8693 483.702 80.8011 482.169 76.5 480.5H58.5C52.3433 483.295 51.132 485.497 51 490V506H37Z" fill="url(#paint4_linear)" stroke="black" stroke-width="3" stroke-linecap="round" stroke-linejoin="round"/>
<path d="M162 506V441V414H176C176.54 426.105 177.387 429.167 179.5 430.5H204V384H142C130.71 389.245 127.159 394.198 127 407.5V517.5C128.637 531.4 132.834 537.025 148 542H207.5V487C206.869 483.702 205.801 482.169 201.5 480.5H183.5C177.343 483.295 176.132 485.497 176 490V506H162Z" fill="url(#paint5_linear)" stroke="black" stroke-width="3" stroke-linecap="round" stroke-linejoin="round"/>
<path fill-rule="evenodd" clip-rule="evenodd" d="M246 505H237.5V538.5H274L277 500.5H297L300 532C301.456 538.87 302.886 540.397 306 541H339L337.5 507H329.5L312 381.5H263L246 505ZM297 472H280.5L288.5 407L297 472Z" fill="url(#paint6_linear)" stroke="black" stroke-width="3" stroke-linecap="round" stroke-linejoin="round"/>
<path d="M371 413V381.5H409.5L422.5 493.5L432.5 411.5H424.5V381.5H471.5V408H463.5L445 537.5H396.5L380 413H371Z" fill="url(#paint7_linear)" stroke="black" stroke-width="3" stroke-linecap="round" stroke-linejoin="round"/>
<defs>
<filter id="filter0_i" x="97.9999" y="28" width="335.588" height="500.261" filterUnits="userSpaceOnUse" color-interpolation-filters="sRGB">
<feFlood flood-opacity="0" result="BackgroundImageFix"/>
<feBlend mode="normal" in="SourceGraphic" in2="BackgroundImageFix" result="shape"/>
<feColorMatrix in="SourceAlpha" type="matrix" values="0 0 0 0 0 0 0 0 0 0 0 0 0 0 0 0 0 0 127 0" result="hardAlpha"/>
<feOffset dy="4"/>
<feGaussianBlur stdDeviation="30"/>
<feComposite in2="hardAlpha" operator="arithmetic" k2="-1" k3="1"/>
<feColorMatrix type="matrix" values="0 0 0 0 0 0 0 0 0 0 0 0 0 0 0 0 0 0 0.15 0"/>
<feBlend mode="normal" in2="shape" result="effect1_innerShadow"/>
</filter>
<filter id="filter1_d" x="316.984" y="242.927" width="247.918" height="320.336" filterUnits="userSpaceOnUse" color-interpolation-filters="sRGB">
<feFlood flood-opacity="0" result="BackgroundImageFix"/>
<feColorMatrix in="SourceAlpha" type="matrix" values="0 0 0 0 0 0 0 0 0 0 0 0 0 0 0 0 0 0 127 0"/>
<feOffset dy="4"/>
<feGaussianBlur stdDeviation="5"/>
<feColorMatrix type="matrix" values="0 0 0 0 0 0 0 0 0 0 0 0 0 0 0 0 0 0 0.25 0"/>
<feBlend mode="normal" in2="BackgroundImageFix" result="effect1_dropShadow"/>
<feBlend mode="normal" in="SourceGraphic" in2="effect1_dropShadow" result="shape"/>
</filter>
<linearGradient id="paint0_linear" x1="244.5" y1="2" x2="95.4386" y2="461.554" gradientUnits="userSpaceOnUse">
<stop stop-color="#FF5746"/>
<stop offset="0.0001" stop-color="#FE6859"/>
<stop offset="1" stop-color="#FFF4F3"/>
</linearGradient>
<linearGradient id="paint1_linear" x1="247" y1="2" x2="247" y2="528" gradientUnits="userSpaceOnUse">
<stop/>
<stop offset="1" stop-opacity="0"/>
</linearGradient>
<linearGradient id="paint2_linear" x1="247" y1="528" x2="247" y2="2" gradientUnits="userSpaceOnUse">
<stop stop-opacity="0.54"/>
<stop offset="1"/>
</linearGradient>
<linearGradient id="paint3_linear" x1="270.114" y1="29" x2="270.114" y2="524.306" gradientUnits="userSpaceOnUse">
<stop offset="0.296875" stop-color="#FFE600"/>
<stop offset="0.84375" stop-color="#FF7A00"/>
</linearGradient>
<linearGradient id="paint4_linear" x1="42.25" y1="384" x2="42.25" y2="542" gradientUnits="userSpaceOnUse">
<stop stop-color="#C8C3C3" stop-opacity="0.94"/>
<stop offset="1" stop-color="white"/>
</linearGradient>
<linearGradient id="paint5_linear" x1="167.25" y1="384" x2="167.25" y2="542" gradientUnits="userSpaceOnUse">
<stop stop-color="#C8C3C3" stop-opacity="0.94"/>
<stop offset="1" stop-color="white"/>
</linearGradient>
<linearGradient id="paint6_linear" x1="288.25" y1="381.5" x2="288.25" y2="541" gradientUnits="userSpaceOnUse">
<stop stop-color="#C8C3C3" stop-opacity="0.94"/>
<stop offset="1" stop-color="white"/>
</linearGradient>
<linearGradient id="paint7_linear" x1="421.25" y1="381.5" x2="421.25" y2="537.5" gradientUnits="userSpaceOnUse">
<stop stop-color="#C8C3C3" stop-opacity="0.94"/>
<stop offset="1" stop-color="white"/>
</linearGradient>
</defs>
</svg>
